<?xml version="1.0" encoding="iso-8859-1"?>
<!-- Generator: Adobe Illustrator 19.0.0, SVG Export Plug-In . SVG Version: 6.00 Build 0)  -->
<svg version="1.1" id="Layer_1" xmlns="http://www.w3.org/2000/svg" xmlns:xlink="http://www.w3.org/1999/xlink" x="0px" y="0px"
	 viewBox="0 0 288.784 288.784" style="enable-background:new 0 0 288.784 288.784;" xml:space="preserve">
<g>
	<g>
		<g>
			<rect x="91.864" y="207.366" width="29.562" height="15.217"/>
			<path d="M259.201,251.61c-3.896-8.362-7.662-21.755-7.383-24.822c1.39-9.1,0.982-22.572-4.337-33.1
				c-8.841-17.5-25.347-28.809-42.042-28.809c-5.329,0-10.457,1.134-15.212,3.353l-5.805,2.666V34.553
				C184.422,15.501,168.923,0,149.869,0H63.421C44.369,0,28.868,15.501,28.868,34.553V216.43c0,19.052,15.501,34.55,34.553,34.55
				h85.939l21.656,9.916c1.872,1.418,10.434,8.456,16.602,23.211c0.794,1.902,2.326,3.398,4.246,4.152
				c0.895,0.353,1.836,0.525,2.775,0.525c1.08,0,2.161-0.233,3.163-0.687l57.67-26.353c1.844-0.842,3.274-2.387,3.977-4.289
				C260.147,255.553,260.059,253.448,259.201,251.61z M127.381,235.762h-63.96c-10.662,0.002-19.336-8.672-19.336-19.332V34.553
				c0-10.662,8.674-19.336,19.336-19.336h86.446c10.662,0,19.336,8.674,19.336,19.336v121.574l-4.684-9.957
				c-1.821-3.906-4.535-7.137-7.738-9.541V28.471H54.572v163.751h85.071l5.504,11.798c-0.649-0.063-1.301-0.099-1.955-0.099
				c-8.481,0-15.752,5.701-18.091,14.192C123.455,224.086,124.452,230.462,127.381,235.762z M126.447,163.919l6.102,13.087h-62.76
				V43.688h71.779v88.531c-2.064,0.233-4.06,0.791-5.95,1.671c-5.222,2.432-9.143,7.19-10.758,13.054
				C123.341,152.447,123.906,158.476,126.447,163.919z M198.303,271.138c-8.506-16.069-18.824-22.914-19.316-23.231
				c-0.312-0.203-0.642-0.385-0.979-0.54l-33.673-15.42c-3.437-1.57-5.572-6.148-4.568-9.787c0.528-1.917,1.775-3.016,3.421-3.016
				c0.639,0,1.316,0.162,2.011,0.479l11.568,5.301c2.896,1.331,6.318,0.708,8.565-1.55c1.659-1.669,2.42-3.972,2.166-6.226
				c-0.063-0.905-0.289-1.818-0.697-2.691l-26.564-56.968c-0.999-2.146-1.258-4.512-0.71-6.503c0.251-0.916,0.913-2.556,2.521-3.305
				c0.53-0.249,1.113-0.375,1.73-0.375c2.161,0,5.255,1.654,6.962,5.321l16.328,34.695c1.775,3.774,6.264,5.41,10.059,3.675
				l19.496-8.95c2.764-1.293,5.732-1.948,8.821-1.948c11.012,0,22.181,8.03,28.461,20.452c3.703,7.332,3.863,17.477,2.879,23.931
				c-0.974,6.325,2.633,18.225,5.719,26.463L198.303,271.138z"/>
			<path d="M105.732,100.347c-6.404-0.763-9.655-1.676-9.655-4.555c0-4.464,6.462-4.946,9.242-4.946
				c4.091,0,8.615,1.978,10.089,4.41l0.586,0.971l9.346-4.324l-0.571-1.164c-3.287-6.716-9.118-8.747-13.619-9.572v-5.945h-10.931
				v5.912c-9.627,1.499-15.336,6.921-15.336,14.657c0,12.724,11.935,14.058,19.825,14.941c7.172,0.85,10.515,2.572,10.515,5.417
				c0,5.506-7.781,5.935-10.168,5.935c-5.351,0-10.505-2.65-11.986-6.165l-0.495-1.169l-10.14,4.296l0.5,1.169
				c2.853,6.683,8.968,10.893,17.282,11.945v6.409h10.931v-6.731c7.979-0.984,15.666-6.087,15.666-15.689
				C126.813,102.944,114.129,101.381,105.732,100.347z"/>
		</g>
	</g>
</g>
<g>
</g>
<g>
</g>
<g>
</g>
<g>
</g>
<g>
</g>
<g>
</g>
<g>
</g>
<g>
</g>
<g>
</g>
<g>
</g>
<g>
</g>
<g>
</g>
<g>
</g>
<g>
</g>
<g>
</g>
</svg>
